<?xml version="1.0" encoding="utf-8"?>
<!-- Generator: Adobe Illustrator 21.0.2, SVG Export Plug-In . SVG Version: 6.00 Build 0)  -->
<svg version="1.1" id="Isolation_Mode" xmlns="http://www.w3.org/2000/svg" xmlns:xlink="http://www.w3.org/1999/xlink" x="0px"
	 y="0px" viewBox="0 0 62.7 26.5" style="enable-background:new 0 0 62.7 26.5;" xml:space="preserve">
<style type="text/css">
	.st0{fill:none;stroke:#CCCBCB;stroke-width:3;stroke-linecap:round;stroke-linejoin:round;stroke-miterlimit:10;}
</style>
<path class="st0" d="M1.5,1.6c2,0,3.5,1,4.8,2.4c2.4,2.5,3.6,5.8,4.9,8.9c1.3,3.1,2.3,6.4,4.3,9.2c2.7,3.9,6,3.9,8.6,0
	c2.1-3.2,3.2-6.8,4.7-10.3c1-2.3,2-4.7,3.5-6.7c3.5-4.7,8.3-4.8,11.9-0.1c2.1,2.6,3.2,5.8,4.4,8.8c1.1,2.8,2.1,5.7,3.8,8.2
	c2.7,4.1,6.1,4.1,8.8,0"/>
</svg>
