<?xml version="1.0" encoding="utf-8"?>
<!-- Generator: Adobe Illustrator 21.0.2, SVG Export Plug-In . SVG Version: 6.00 Build 0)  -->
<svg version="1.1" xmlns="http://www.w3.org/2000/svg" xmlns:xlink="http://www.w3.org/1999/xlink" x="0px" y="0px"
	 viewBox="0 0 653 96.6" style="enable-background:new 0 0 653 96.6;" xml:space="preserve">
<style type="text/css">
	.st0{fill:url(#SVGID_1_);}
	.st1{fill:url(#SVGID_2_);}
	.st2{fill:#FFF;}
	.st3{display:none;}
	.st4{display:inline;fill:#FFF;}
</style>
<g id="Layer_1">
	<title>Untitled</title>
	<desc>Created with Sketch.</desc>
	<g>
		<g id="Page-1">
			<g id="GRAPHS" transform="translate(1.000000, 1.000000)">
				<g id="LIKES_GRAPH">

						<linearGradient id="SVGID_1_" gradientUnits="userSpaceOnUse" x1="-783.3307" y1="305.8652" x2="-783.3307" y2="306.8943" gradientTransform="matrix(95.8677 0 0 31.3266 75237.1719 -9550.542)">
						<stop  offset="0" style="stop-color:#00FAFF"/>
						<stop  offset="1" style="stop-color:#00FF8A"/>
					</linearGradient>
					<path class="st0" d="M197.2,95.6c-16,0-26.4-25.8-36.6-50.8C152.8,26,144.1,4.8,136,4.8c-9.3,0-16.5,16.8-22.9,31.9
						c-7,16.5-13.6,31.9-24.4,31.9c-11.3,0-17.7-10.4-23.2-19.4c-4.4-7-8.4-13.9-13.6-13.9c-4.9,0-9.9,7.8-15.4,16.3
						C28.3,64,18.2,79.7,1.9,79.7c-1.7,0-2.9-1.2-2.9-2.9c0-1.7,1.2-2.9,2.9-2.9c13.1,0,21.8-13.4,29.6-25.2
						c6.7-10.2,12.2-18.9,20.3-18.9c8.7,0,13.6,8.4,18.6,16.5s10.2,16.5,18.3,16.5c7,0,13.4-15.1,19.2-28.4C115.4,17,122.9-1,136-1
						c12.2,0,20.3,20.3,29.9,43.8c9,22.1,19.2,47.3,31.1,47.3c10.2,0,20-16.3,30.5-33.7c13.9-23.2,29.6-49,52.8-49
						c1.7,0,2.9,1.2,2.9,2.9s-1.2,2.9-2.9,2.9c-20,0-34.8,24.4-47.6,46.1C220.7,78.8,210.6,95.6,197.2,95.6z"/>
				</g>
				<g id="COMMENTS_GRAPH">

						<linearGradient id="SVGID_2_" gradientUnits="userSpaceOnUse" x1="-783.3105" y1="308.8062" x2="-783.3105" y2="309.9053" gradientTransform="matrix(95.6478 0 0 28.4708 75062.8438 -8754.4629)">
						<stop  offset="0" style="stop-color:#FFEE00"/>
						<stop  offset="0.2309" style="stop-color:#FFB135"/>
						<stop  offset="0.6092" style="stop-color:#FF5386"/>
						<stop  offset="0.874" style="stop-color:#FF17BA"/>
						<stop  offset="1" style="stop-color:#FF00CE"/>
					</linearGradient>
					<path class="st1" d="M156.6,94.2c-13.4,0-21.5-17.1-29.6-33.7c-6.1-13.4-12.5-27-20-27c-7.3,0-13.1,13.6-18.9,27
						c-7,16.5-14.2,33.4-27.3,33.4c-12.2,0-19.2-18-27.6-38.6C25.1,34.7,15.8,11.5,2.2,11.5c-1.7,0-2.9-1.2-2.9-2.9s1.2-2.9,2.9-2.9
						c17.7,0,27.3,24.4,36.6,47.6c7,17.1,13.9,34.8,22.1,34.8c9.3,0,15.7-15.1,22.1-29.9c6.7-15.7,13.1-30.5,24.1-30.5
						s18,14.5,25.2,30.2c7,14.8,14.5,30.5,24.1,30.5c9.9,0,18-11.9,26.1-23.8c8.4-12.5,17.4-25.2,29.3-25.2c11,0,21.2,9.6,31.6,19.7
						c11.3,10.7,22.9,22.1,36.3,22.1c1.7,0,2.9,1.2,2.9,2.9s-1.2,2.9-2.9,2.9c-15.7,0-28.7-12.5-40.1-23.8c-9.6-9.3-18.9-18-27.6-18
						c-9,0-16.8,11.6-24.7,22.6C178.6,80.8,169.4,94.2,156.6,94.2z"/>
				</g>
			</g>
		</g>
		<g>
			<path class="st2" d="M312.6,36h-6.4v-2h6.4c0,0,0-5.4,0-8.5c0-5.8,1.8-14.3,13.8-14.3c7.2,0,10,3.4,10,3.4l-1.5,1.3
				c-0.6-0.6-3-2.9-8.3-2.9c-10.9,0-12.1,8.6-12.1,12.7c0,2.5,0,8.2,0,8.2h21l-0.3,41.5h-1.7l0.2-39.5h-19.2l-0.2,39.5h-1.7V36z"/>
			<path class="st2" d="M384.8,75.7h-1.7v-25c0-6.7-0.9-11.2-2.7-14.4c-1.7-2.9-4.8-4.7-8.8-4.7c-2.3,0-4,0.2-6.2,1.1
				c-2.1,0.8-3.6,1.6-5.8,3.2c-1.8,1.3-3.2,2.8-4.6,4.9c-1.5,2-2.3,4-2.9,6.1l0,28.5h-1.7V30.8h1.7v11.6c0.9-1.7,2-3.6,3.4-5
				c1.4-1.5,2.7-2.6,4.5-3.9c1.7-1.2,3.5-2,5.5-2.7c2.2-0.7,4.1-0.9,6.2-0.9c4.6,0,8.3,1.9,10.3,5.1s3.2,8.5,3.2,15.8v25H384.8z"/>
			<path class="st2" d="M417.3,76.6c-17.7,0-22.1-14.4-22.1-23.2c0-9.4,5.2-23.5,20.9-23.5c11.6,0,17.2,9.3,18.3,11V30.5h1.7v43.9
				c0,13.6-6.4,20.5-20,20.5c-13.6,0-17.7-7.5-19.4-10.7l2.1-0.7c1.7,3.5,5.8,9.6,17.5,9.6s17.8-6.2,17.8-18.6l0-7.4
				C433.3,68.5,428.1,76.6,417.3,76.6z M417.5,74.8c11.3,0,16.9-11.9,16.9-13.6V45.3c-0.6-2-6.7-13.3-17.7-13.3
				c-13.3,0-19.1,10.4-19.1,21.7S404.4,74.8,417.5,74.8z"/>
			<path class="st2" d="M469.6,76.6c-21.3,0-22.2-20.7-22.2-23.9c0-5.7,2.8-22.5,21.6-22.5c20.5,0,21.8,19.7,21.8,22.9V54h-41.2
				c0,4.4,2.3,20.6,20.1,20.6c11.1,0,15.2-7.2,15.9-9.2l2,0.6C487,67.5,482.8,76.6,469.6,76.6z M488.9,52.3c0-3-2.2-20.2-20.2-20.2
				c-17.2,0-19.2,16.9-19.1,20.2H488.9z"/>
			<path class="st2" d="M509.2,36c-3.1,2.7-6,7.4-6.5,10.7v29h-1.7v-45h1.7v10.9c1.6-3.2,3.5-6.2,8.1-8.8c4.5-2.6,9.8-2,9.8-2
				l-0.4,1.7C520.1,32.5,513.8,32,509.2,36z"/>
			<path class="st2" d="M546.3,73.4c-0.9,0.6-3.8,2.6-7.9,2.6c-7.7,0-7.8-6.3-7.8-9.8V32.5h-6.4v-1.7h6.4V15.1h1.7v15.7H543v1.7
				h-10.7v33.7c0,3-0.1,8.3,6.1,8.3c4.3,0,6.9-2.3,6.9-2.3L546.3,73.4z"/>
			<path class="st2" d="M554.6,19.2v-6.7h1.7v6.7C556.4,19.2,554.6,19.2,554.6,19.2z M554.6,75.7v-45h1.7v45H554.6z"/>
			<path class="st2" d="M590.7,76.8c-13.3,0-17.2-9.7-18.3-11.2v28.7h-1.7V30.8h1.7v9.6c0.9-1.5,5.1-10.5,18.2-10.5
				s21.6,11,21.6,23.5S604,76.8,590.7,76.8z M590.9,74.9c12.8,0,19.2-11.5,19.2-21.5s-7.4-21.5-20-21.5c-12.6,0-17.1,11.9-17.4,13.6
				v16.3C573.5,63.6,578.1,74.9,590.9,74.9z"/>
			<path class="st2" d="M636,76.8c-7.4,0-12.6-2.5-17-7.4l1.4-1.3c2.3,2.3,7,6.8,15.8,6.8c7.8,0,14.7-4.6,14.7-11.3
				c0-2.6-3-10.4-15.5-10.4c-10.4,0-14.4-6.6-14.4-11.2s3-12.6,15.8-12.6c9.4,0,13.6,4.6,14.5,6.4l-1.7,0.6
				c-1.2-1.7-5.5-5.2-12.8-5.2c-10.2,0-13.8,6.2-13.8,10.8c0,4.2,3.5,9.2,13.2,9.2c12.4,0,16.8,7.8,16.8,11.6
				C653,70.4,647.7,76.8,636,76.8z"/>
		</g>
	</g>
</g>
<g id="Layer_2" class="st3">
	<path class="st4" d="M312.6,34h-6.4v1.8h6.4l-0.1,39.8h1.7V35.7H334v39.8h1.6V34h-21.3v-8.7c0-7,5.7-12.7,12.7-12.7
		c3.3,0,6.3,1.3,8.6,3.3l1.2-1.5c-2.6-2.3-6-3.7-9.7-3.7c-8,0-14.4,6.5-14.4,14.4L312.6,34z"/>
	<path class="st4" d="M352,31.1"/>
	<polygon class="st4" points="352,47.2 352,75.5 350.3,75.5 350.3,31.1 352,31.1 	"/>
	<ellipse class="st4" cx="416.3" cy="53.5" rx="18.7" ry="21.2"/>
</g>
</svg>
