<?xml version="1.0" encoding="iso-8859-1"?>
<!-- Generator: Adobe Illustrator 19.0.0, SVG Export Plug-In . SVG Version: 6.00 Build 0)  -->
<svg version="1.1" id="Capa_1" xmlns="http://www.w3.org/2000/svg" xmlns:xlink="http://www.w3.org/1999/xlink" x="0px" y="0px"
	 viewBox="0 0 512 512" style="enable-background:new 0 0 512 512;" xml:space="preserve">
<g>
	<g>
		<g>
			<path d="M277.333,190.293v-45.44l85.333,79.573l-33.707,31.36l118.187,118.187c13.013-7.04,21.973-21.12,21.973-37.12
				l0.213-213.333c0-23.68-19.2-42.667-42.667-42.667h-272.64L265.6,192.427C269.44,191.573,273.28,190.933,277.333,190.293z"/>
			<polygon points="452.693,379.52 495.36,422.187 512,422.187 512,379.52 			"/>
			<path d="M23.68,59.093l32.853,32.853C48,99.627,42.667,110.933,42.667,123.52v213.333c0,23.467,18.987,42.667,42.667,42.667H0
				v42.667h386.773L444.587,480l27.093-27.093L50.987,32L23.68,59.093z M193.493,228.907l33.92,33.92
				c-32.853,8.107-57.6,25.173-78.08,52.693C155.947,283.947,168.96,252.587,193.493,228.907z"/>
		</g>
	</g>
</g>
<g>
</g>
<g>
</g>
<g>
</g>
<g>
</g>
<g>
</g>
<g>
</g>
<g>
</g>
<g>
</g>
<g>
</g>
<g>
</g>
<g>
</g>
<g>
</g>
<g>
</g>
<g>
</g>
<g>
</g>
</svg>
